<svg width="2000" height="2000" viewBox="0 0 2000 2000" fill="none" xmlns="http://www.w3.org/2000/svg">
<g clip-path="url(#clip0_7_34352)">

<path d="M1216.61 225.168C1282.7 294.335 1298.18 394.09 1316.45 484.091C1318.2 492.602 1319.95 501.113 1321.71 509.623C1325.47 527.882 1329.22 546.143 1332.95 564.407C1342.57 611.452 1352.3 658.476 1362.02 705.501C1363.64 713.34 1365.26 721.18 1366.87 729.02C1393.12 856.124 1420.1 983.075 1447.13 1110.01C1447.98 1113.98 1447.98 1113.98 1448.84 1118.02C1453.81 1141.36 1458.78 1164.7 1463.75 1188.04C1468.97 1212.51 1474.17 1236.99 1479.37 1261.47C1479.86 1263.8 1480.36 1266.13 1480.87 1268.53C1482.83 1277.76 1484.79 1287 1486.75 1296.23C1492.66 1324.09 1498.61 1351.95 1504.61 1379.79C1507.88 1395.01 1511.13 1410.25 1514.36 1425.48C1515.83 1432.36 1517.31 1439.24 1518.81 1446.11C1538.4 1536.12 1539.88 1618.46 1488.87 1699.05C1443.22 1768.69 1375.56 1818.69 1293.88 1836.68C1257.97 1842.33 1221.74 1842.97 1185.47 1842.96C1180.96 1842.97 1176.45 1842.98 1171.8 1842.99C1159.56 1843.02 1147.32 1843.03 1135.07 1843.04C1127.38 1843.04 1119.69 1843.05 1112 1843.05C1085.06 1843.09 1058.12 1843.1 1031.17 1843.1C1006.25 1843.09 981.324 1843.13 956.399 1843.19C934.843 1843.23 913.287 1843.25 891.731 1843.25C878.926 1843.25 866.122 1843.25 853.317 1843.29C733.204 1843.61 634.107 1836.32 542.166 1749.35C512.006 1718.19 489.936 1681.52 476.027 1640.41C474.014 1634.66 474.014 1634.66 471.961 1628.8C449.062 1552.79 458.543 1470.3 493.222 1399.76C497.94 1391.42 504.125 1384.69 510.488 1377.57C523.106 1360.87 520.931 1347.2 518.193 1327.48C517.719 1324.92 517.245 1322.36 516.756 1319.72C507.298 1263.99 523.339 1204.37 535.17 1150.05C536.681 1142.98 538.188 1135.9 539.692 1128.82C542.958 1113.47 546.242 1098.12 549.539 1082.78C555.015 1057.24 560.394 1031.69 565.756 1006.14C566.702 1001.63 567.648 997.117 568.594 992.608C570.035 985.739 571.476 978.87 572.917 972.002C578.364 946.034 583.832 920.071 589.301 894.108C589.804 891.72 590.307 889.331 590.826 886.87C598.173 851.987 605.525 817.105 612.879 782.223C617.127 762.076 621.374 741.928 625.621 721.78C627.189 714.34 628.758 706.901 630.326 699.461C642.24 642.948 654.112 586.426 665.866 529.878C669.418 512.802 672.985 495.729 676.552 478.656C679.147 466.223 681.732 453.788 684.289 441.347C703.543 347.69 725.759 260.19 804.794 198.627C807.386 196.601 809.977 194.574 812.647 192.487C848.671 165.865 888.355 148.416 931.507 136.983C934.851 136.03 934.851 136.03 938.262 135.057C1042.13 112.642 1141.45 155.665 1216.61 225.168Z" fill="#FDFDFD"/>
<path d="M1052.44 372C1087.73 399.9 1091.86 454.734 1100.45 496.202C1101.51 501.275 1102.58 506.349 1103.65 511.422C1106.55 525.182 1109.42 538.948 1112.29 552.715C1115.37 567.488 1118.48 582.256 1121.58 597.024C1126.9 622.349 1132.2 647.677 1137.5 673.007C1145.79 712.676 1154.11 752.34 1162.43 792.002C1165.23 805.361 1168.04 818.721 1170.84 832.08C1171.88 837.048 1171.88 837.048 1172.95 842.116C1177.88 865.642 1182.81 889.168 1187.74 912.695C1205.3 996.473 1222.9 1080.24 1240.57 1163.99C1241.38 1167.85 1241.38 1167.85 1242.21 1171.78C1248.46 1201.39 1254.71 1231.01 1260.97 1260.62C1268.99 1298.64 1277.01 1336.66 1285.03 1374.67C1288.2 1389.68 1291.37 1404.69 1294.54 1419.7C1295.96 1426.44 1297.38 1433.18 1298.8 1439.93C1302.11 1455.64 1305.44 1471.34 1308.83 1487.03C1309.47 1489.99 1310.11 1492.95 1310.76 1496C1311.94 1501.48 1313.13 1506.96 1314.33 1512.44C1321.16 1544.32 1323.61 1572.01 1306.87 1601.22C1289.96 1624.3 1267.11 1633.92 1239.73 1639.55C1223.72 1640.95 1207.8 1640.96 1191.74 1640.88C1187 1640.89 1182.26 1640.91 1177.52 1640.94C1164.74 1640.98 1151.96 1640.96 1139.18 1640.93C1125.75 1640.91 1112.32 1640.93 1098.89 1640.95C1076.35 1640.96 1053.8 1640.94 1031.25 1640.89C1005.26 1640.83 979.267 1640.85 953.273 1640.91C930.877 1640.96 908.481 1640.96 886.085 1640.94C872.744 1640.92 859.402 1640.92 846.06 1640.95C833.511 1640.98 820.964 1640.96 808.415 1640.9C801.666 1640.88 794.916 1640.91 788.167 1640.94C754.737 1640.71 724.407 1636.86 697.801 1615.1C681.469 1597.82 672.2 1575.17 670.778 1551.5C672.164 1527.61 680.495 1501.75 698.63 1485.44C728.798 1466.71 754.437 1460.98 789.631 1460.93C792.507 1460.91 795.383 1460.89 798.347 1460.88C804.563 1460.84 810.78 1460.81 816.997 1460.79C826.844 1460.75 836.691 1460.68 846.538 1460.6C874.526 1460.39 902.514 1460.21 930.502 1460.09C947.646 1460.02 964.79 1459.9 981.934 1459.75C988.455 1459.7 994.976 1459.67 1001.5 1459.66C1010.62 1459.64 1019.74 1459.56 1028.86 1459.47C1032.88 1459.49 1032.88 1459.49 1036.98 1459.5C1053.37 1459.25 1064.53 1456.7 1078.77 1447.77C1098.29 1427.36 1104.24 1411 1103.67 1383.33C1102.08 1364.71 1097.67 1346.86 1093.19 1328.75C1089.96 1315.68 1086.9 1302.59 1083.84 1289.49C1083.16 1286.62 1082.49 1283.75 1081.8 1280.79C1072.64 1241.43 1064.64 1201.82 1056.51 1162.24C1053.3 1146.69 1050.09 1131.14 1046.88 1115.59C1046.09 1111.81 1045.31 1108.03 1044.51 1104.13C1037.74 1071.35 1030.96 1038.56 1023.99 1005.81C1022.85 1000.43 1021.72 995.05 1020.6 989.666C1019.08 982.335 1017.52 975.012 1015.95 967.69C1015.09 963.644 1014.24 959.598 1013.36 955.43C1010.16 943.949 1005.67 934.252 1000 923.798C996.61 924.928 993.219 926.058 989.726 927.223C981.59 945.638 976.689 964.289 972.402 983.903C971.768 986.738 971.134 989.574 970.48 992.495C968.383 1001.91 966.318 1011.33 964.255 1020.76C963.172 1025.65 963.172 1025.65 962.066 1030.65C952.332 1074.64 943.093 1118.72 934.183 1162.88C933.492 1166.3 933.492 1166.3 932.788 1169.79C928.659 1190.23 924.537 1210.68 920.495 1231.15C917.98 1243.88 915.44 1256.6 912.899 1269.33C911.793 1275.01 911.793 1275.01 910.665 1280.81C897.557 1346.12 897.557 1346.12 872.245 1364.44C848.081 1379.54 826.516 1386.05 797.945 1382.7C768.183 1373.68 748.312 1356.9 732.81 1330.21C723.634 1305.2 726.324 1281.55 731.535 1255.98C732.478 1251.1 732.478 1251.1 733.44 1246.12C735.476 1235.7 737.588 1225.29 739.726 1214.89C740.411 1211.55 741.095 1208.2 741.8 1204.75C746.177 1183.48 750.695 1162.25 755.267 1141.02C757.875 1128.91 760.469 1116.79 763.061 1104.67C766.809 1087.15 770.563 1069.64 774.323 1052.12C783.808 1007.93 793.269 963.732 802.714 919.533C803.737 914.744 804.76 909.955 805.784 905.165C820.374 836.9 834.766 768.597 848.911 700.238C851.654 686.984 854.4 673.731 857.148 660.478C864.934 622.909 872.703 585.336 880.396 547.747C883.536 532.44 886.704 517.138 889.879 501.837C891.335 494.787 892.779 487.735 894.209 480.679C896.161 471.054 898.157 461.438 900.162 451.823C900.709 449.067 901.257 446.311 901.821 443.471C909.344 407.982 922.008 383.347 952.055 362.154C988.016 341.703 1018.93 353.034 1052.44 372Z" fill="#FF375E"/>
<path d="M1216.61 234.941C1282.7 304.108 1298.18 403.864 1316.45 493.864C1318.2 502.376 1319.95 510.886 1321.71 519.397C1325.47 537.655 1329.22 555.917 1332.95 574.181C1342.58 621.226 1352.3 668.249 1362.02 715.274C1363.64 723.114 1365.26 730.953 1366.88 738.793C1393.13 865.898 1420.1 992.848 1447.13 1119.79C1447.98 1123.75 1447.98 1123.75 1448.84 1127.79C1453.81 1151.13 1458.78 1174.47 1463.75 1197.81C1468.97 1222.29 1474.18 1246.76 1479.37 1271.24C1479.87 1273.57 1480.36 1275.9 1480.87 1278.3C1482.83 1287.54 1484.79 1296.77 1486.75 1306.01C1492.66 1333.87 1498.61 1361.72 1504.61 1389.56C1507.88 1404.79 1511.13 1420.02 1514.37 1435.25C1515.83 1442.13 1517.32 1449.01 1518.81 1455.88C1538.4 1545.9 1539.89 1628.23 1488.87 1708.83C1443.22 1778.46 1375.57 1828.47 1293.88 1846.46C1257.97 1852.1 1221.74 1852.75 1185.47 1852.73C1180.96 1852.74 1176.45 1852.76 1171.8 1852.77C1159.56 1852.8 1147.32 1852.81 1135.08 1852.81C1127.39 1852.81 1119.7 1852.82 1112.01 1852.83C1085.06 1852.86 1058.12 1852.87 1031.18 1852.87C1006.25 1852.87 981.326 1852.9 956.401 1852.96C934.845 1853 913.289 1853.02 891.733 1853.02C878.928 1853.02 866.124 1853.03 853.319 1853.06C733.206 1853.39 634.109 1846.09 542.168 1759.13C512.008 1727.97 489.938 1691.29 476.029 1650.18C474.016 1644.43 474.016 1644.43 471.962 1638.57C449.064 1562.56 458.545 1480.07 493.224 1409.53C497.942 1401.19 504.127 1394.47 510.49 1387.34C523.108 1370.65 520.933 1356.97 518.195 1337.25C517.721 1334.69 517.247 1332.13 516.758 1329.5C507.3 1273.77 523.341 1214.14 535.171 1159.83C536.683 1152.75 538.19 1145.67 539.694 1138.6C542.96 1123.24 546.244 1107.9 549.541 1092.55C555.017 1067.02 560.396 1041.47 565.758 1015.91C566.704 1011.4 567.65 1006.89 568.596 1002.38C570.037 995.513 571.478 988.644 572.919 981.775C578.366 955.808 583.834 929.845 589.303 903.882C589.806 901.493 590.309 899.104 590.828 896.643C598.175 861.76 605.527 826.878 612.881 791.997C617.129 771.849 621.376 751.701 625.623 731.553C627.191 724.114 628.76 716.674 630.328 709.235C642.242 652.721 654.114 596.199 665.868 539.652C669.42 522.576 672.986 505.502 676.554 488.429C679.149 475.996 681.734 463.561 684.291 451.12C703.545 357.463 725.761 269.963 804.796 208.4C807.388 206.374 809.979 204.348 812.649 202.26C848.673 175.639 888.357 158.19 931.509 146.757C934.853 145.803 934.853 145.803 938.264 144.83C1042.13 122.416 1141.45 165.438 1216.61 234.941ZM900.687 222.099C898.016 223.163 895.345 224.227 892.593 225.323C840.726 248.502 795.799 294.046 774.15 346.395C764.893 371.02 758.827 395.63 753.541 421.372C752.618 425.755 751.694 430.138 750.743 434.654C748.216 446.651 745.723 458.655 743.236 470.66C740.568 483.509 737.866 496.351 735.168 509.194C730.558 531.156 725.967 553.121 721.39 575.089C714.247 609.37 707.068 643.643 699.88 677.915C699.285 680.755 698.689 683.595 698.075 686.521C695.668 697.997 693.261 709.474 690.854 720.95C687.24 738.175 683.63 755.401 680.021 772.627C665.107 843.815 650.059 914.971 634.767 986.078C633.488 992.029 633.488 992.029 632.183 998.1C624.343 1034.56 616.479 1071.01 608.587 1107.46C605.791 1120.38 603.005 1133.3 600.221 1146.23C598.373 1154.78 596.511 1163.34 594.648 1171.89C585.41 1214.59 577.556 1256.35 577.913 1300.22C577.886 1303.55 577.86 1306.88 577.833 1310.3C577.873 1325.22 578.348 1338.74 582.461 1353.13C585.98 1367.4 586.012 1375.75 582.194 1389.91C577 1398.09 571.923 1405.29 565.927 1412.81C523.914 1468.51 516.991 1531.89 524.908 1599.99C535.426 1662.92 576.449 1712.53 625.711 1750.59C659.468 1774.32 700.928 1787.54 742.025 1787.65C744.276 1787.66 746.527 1787.67 748.846 1787.68C756.364 1787.71 763.882 1787.71 771.4 1787.72C776.802 1787.74 782.204 1787.75 787.605 1787.77C802.268 1787.82 816.93 1787.84 831.592 1787.85C840.766 1787.86 849.94 1787.88 859.114 1787.89C887.855 1787.94 916.596 1787.97 945.337 1787.99C978.441 1788 1011.54 1788.06 1044.65 1788.16C1070.28 1788.23 1095.91 1788.27 1121.55 1788.27C1136.83 1788.28 1152.12 1788.3 1167.41 1788.36C1181.81 1788.42 1196.21 1788.42 1210.61 1788.39C1215.87 1788.39 1221.12 1788.4 1226.38 1788.44C1289.18 1788.82 1343.64 1774.39 1389.6 1729.79C1392.13 1727.25 1394.66 1724.71 1397.26 1722.1C1399.69 1719.88 1402.11 1717.66 1404.61 1715.37C1441.46 1680.91 1467.81 1631.62 1470.03 1580.66C1471.11 1534.45 1464.63 1492.25 1454.65 1447.27C1453.09 1439.97 1451.54 1432.67 1449.99 1425.37C1446.71 1409.96 1443.39 1394.56 1440.04 1379.16C1435 1356.05 1430.09 1332.91 1425.2 1309.76C1418.37 1277.44 1411.51 1245.13 1404.6 1212.82C1403.25 1206.48 1403.25 1206.48 1401.86 1200C1400 1191.28 1398.13 1182.56 1396.27 1173.83C1387.18 1131.3 1378.1 1088.77 1369.05 1046.24C1368.26 1042.54 1368.26 1042.54 1367.46 1038.76C1350.25 957.91 1333.32 876.998 1316.55 796.052C1312.8 777.97 1309.05 759.889 1305.29 741.809C1302.81 729.857 1300.33 717.904 1297.85 705.952C1297.24 703.009 1296.63 700.065 1296 697.033C1288.7 661.908 1281.44 626.778 1274.22 591.639C1269.66 569.487 1265.07 547.34 1260.47 525.198C1257.8 512.373 1255.15 499.545 1252.53 486.709C1232.49 388.449 1211.9 300.452 1124.64 239.878C1056.46 197.091 974.932 190.9 900.687 222.099Z" fill="#4F008B"/>
</g>
<defs>
<clipPath id="clip0_7_34352">
<rect width="2000" height="2000" fill="white"/>
</clipPath>
</defs>
</svg>
